# Blender v2.82 (sub 7) OBJ File: 'random_table.blend'
# www.blender.org
mtllib random_table46.mtl
o Table_Cube.081
v 5.747019 3.621066 0.007576
v 5.747019 3.621066 -0.007576
v 5.181640 3.621066 -0.007576
v 5.181640 3.621066 0.007576
v 5.747019 3.055687 -0.007576
v 5.747019 3.055687 0.007576
v 5.181640 3.055687 0.007576
v 5.181640 3.055687 -0.007576
v 4.671881 3.621066 0.007576
v 4.671881 3.621066 -0.007576
v 4.671881 3.055687 -0.007576
v 4.671881 3.055687 0.007576
v 5.747019 2.578584 -0.007576
v 5.747019 2.578584 0.007576
v 5.181640 2.578584 0.007576
v 5.181640 2.578584 -0.007576
v 4.671881 2.578584 0.007576
v 4.671881 2.578584 -0.007576
v 5.181640 3.055687 4.228542
v 4.671881 3.055687 4.228542
v 5.181640 2.578584 4.228542
v 4.671881 2.578584 4.228542
v 0.000000 3.621066 0.007576
v 0.000000 3.621066 -0.007576
v -5.747019 3.621066 0.007576
v -5.747019 3.621066 -0.007576
v -5.181641 3.621066 -0.007576
v -5.181641 3.621066 0.007576
v 0.000000 3.055687 0.007576
v 0.000000 3.055687 -0.007576
v -5.747019 3.055687 -0.007576
v -5.747019 3.055687 0.007576
v -5.181641 3.055687 0.007576
v -5.181641 3.055687 -0.007576
v -4.671882 3.621066 0.007576
v -4.671882 3.621066 -0.007576
v -4.671882 3.055687 -0.007576
v -4.671882 3.055687 0.007576
v 0.000000 2.578584 -0.007576
v -5.747019 2.578584 -0.007576
v -5.747019 2.578584 0.007576
v -5.181641 2.578584 0.007576
v -5.181641 2.578584 -0.007576
v 0.000000 2.578583 0.007576
v -4.671882 2.578584 0.007576
v -4.671882 2.578584 -0.007576
v -5.181641 3.055687 4.228542
v -4.671882 3.055687 4.228542
v -5.181641 2.578584 4.228542
v -4.671882 2.578584 4.228542
v 5.747019 0.000000 0.007576
v 5.747020 -3.621066 0.007576
v 5.747019 0.000000 -0.007576
v 5.747020 -3.621066 -0.007576
v 5.181640 0.000000 -0.007576
v 5.181641 -3.621066 -0.007576
v 5.181640 0.000000 0.007576
v 5.181641 -3.621066 0.007576
v 5.747020 -3.055686 -0.007576
v 5.747020 -3.055686 0.007576
v 5.181641 -3.055686 0.007576
v 5.181641 -3.055686 -0.007576
v 4.671882 0.000000 -0.007576
v 4.671882 -3.621066 0.007576
v 4.671882 -3.621066 -0.007576
v 4.671882 0.000000 0.007576
v 4.671882 -3.055686 -0.007576
v 4.671882 -3.055686 0.007576
v 5.747020 -2.578583 -0.007576
v 5.747020 -2.578583 0.007576
v 5.181641 -2.578583 0.007576
v 5.181641 -2.578583 -0.007576
v 4.671882 -2.578583 0.007576
v 4.671882 -2.578583 -0.007576
v 5.181641 -3.055686 4.228542
v 4.671882 -3.055686 4.228542
v 5.181641 -2.578583 4.228542
v 4.671882 -2.578583 4.228542
v 0.000000 0.000000 0.007576
v 0.000000 -3.621066 0.007576
v 0.000000 0.000000 -0.007576
v 0.000000 -3.621066 -0.007576
v -5.747020 0.000000 0.007576
v -5.747020 -3.621066 0.007576
v -5.747020 0.000000 -0.007576
v -5.747020 -3.621066 -0.007576
v -5.181641 0.000000 -0.007576
v -5.181641 -3.621066 -0.007576
v -5.181641 0.000000 0.007576
v -5.181641 -3.621066 0.007576
v 0.000000 -3.055686 0.007576
v 0.000000 -3.055686 -0.007576
v -5.747020 -3.055686 -0.007576
v -5.747020 -3.055686 0.007576
v -5.181641 -3.055686 0.007576
v -5.181641 -3.055686 -0.007576
v -4.671882 0.000000 -0.007576
v -4.671882 -3.621066 0.007576
v -4.671882 -3.621066 -0.007576
v -4.671882 0.000000 0.007576
v -4.671882 -3.055686 -0.007576
v -4.671882 -3.055686 0.007576
v 0.000000 -2.578583 -0.007576
v -5.747020 -2.578583 -0.007576
v -5.747020 -2.578583 0.007576
v -5.181641 -2.578583 0.007576
v -5.181641 -2.578583 -0.007576
v 0.000000 -2.578583 0.007576
v -4.671882 -2.578583 0.007576
v -4.671882 -2.578583 -0.007576
v -5.181641 -3.055686 4.228542
v -4.671882 -3.055686 4.228542
v -5.181641 -2.578583 4.228542
v -4.671882 -2.578583 4.228542
vt 0.585966 0.475406
vt 0.625000 0.475406
vt 0.625000 0.500000
vt 0.585966 0.500000
vt 0.625000 0.750000
vt 0.585966 0.750000
vt 0.585966 0.796769
vt 0.625000 0.796769
vt 0.625000 1.000000
vt 0.585966 1.000000
vt 0.671769 0.500000
vt 0.875000 0.500000
vt 0.875000 0.750000
vt 0.671769 0.750000
vt 0.649594 0.500000
vt 0.649594 0.750000
vt 0.625000 0.774594
vt 0.585966 0.774594
vt 0.585966 0.453231
vt 0.625000 0.453231
vt 0.553027 0.453231
vt 0.553027 0.475406
vt 0.553027 0.750000
vt 0.553027 0.774594
vt 0.553027 0.796769
vt 0.553027 1.000000
vt 0.553027 0.500000
vt 0.553027 0.774594
vt 0.553027 0.796769
vt 0.553027 0.250000
vt 0.585966 0.250000
vt 0.625000 0.250000
vt 0.375000 0.250000
vt 0.375000 0.453231
vt 0.375000 0.774594
vt 0.375000 0.796769
vt 0.375000 0.475406
vt 0.375000 0.500000
vt 0.375000 0.750000
vt 0.375000 1.000000
vt 0.585966 0.774594
vt 0.585966 0.796769
vt 0.585966 0.000000
vt 0.625000 0.000000
vt 0.585966 0.475406
vt 0.585966 0.500000
vt 0.625000 0.500000
vt 0.625000 0.475406
vt 0.585966 0.750000
vt 0.625000 0.750000
vt 0.585966 0.796769
vt 0.625000 0.796769
vt 0.671769 0.500000
vt 0.671769 0.750000
vt 0.649594 0.750000
vt 0.649594 0.500000
vt 0.585966 0.774594
vt 0.625000 0.774594
vt 0.585966 0.453231
vt 0.625000 0.453231
vt 0.553027 0.453231
vt 0.553027 0.475406
vt 0.553027 0.750000
vt 0.553027 0.774594
vt 0.553027 0.796769
vt 0.553027 0.500000
vt 0.553027 0.000000
vt 0.553027 0.796769
vt 0.553027 0.774594
vt 0.375000 0.453231
vt 0.375000 0.774594
vt 0.375000 0.796769
vt 0.375000 0.000000
vt 0.375000 0.475406
vt 0.375000 0.500000
vt 0.375000 0.750000
vt 0.585966 0.796769
vt 0.585966 0.774594
vt 0.585966 0.475406
vt 0.585966 0.500000
vt 0.625000 0.500000
vt 0.625000 0.475406
vt 0.585966 0.750000
vt 0.625000 0.750000
vt 0.585966 0.796769
vt 0.585966 1.000000
vt 0.625000 1.000000
vt 0.625000 0.796769
vt 0.350406 0.500000
vt 0.350406 0.750000
vt 0.671769 0.500000
vt 0.671769 0.750000
vt 0.875000 0.750000
vt 0.875000 0.500000
vt 0.649594 0.750000
vt 0.649594 0.500000
vt 0.328231 0.500000
vt 0.328231 0.750000
vt 0.585966 0.774594
vt 0.625000 0.774594
vt 0.585966 0.453231
vt 0.625000 0.453231
vt 0.553027 0.453231
vt 0.553027 0.475406
vt 0.553027 0.750000
vt 0.553027 0.774594
vt 0.553027 0.796769
vt 0.553027 1.000000
vt 0.553027 0.500000
vt 0.553027 0.796769
vt 0.553027 0.774594
vt 0.553027 0.250000
vt 0.585966 0.250000
vt 0.625000 0.250000
vt 0.125000 0.500000
vt 0.125000 0.750000
vt 0.585966 0.796769
vt 0.585966 0.774594
vt 0.585966 0.000000
vt 0.625000 0.000000
vt 0.585966 0.475406
vt 0.625000 0.475406
vt 0.625000 0.500000
vt 0.585966 0.500000
vt 0.625000 0.750000
vt 0.585966 0.750000
vt 0.585966 0.796769
vt 0.625000 0.796769
vt 0.350406 0.500000
vt 0.350406 0.750000
vt 0.671769 0.500000
vt 0.671769 0.750000
vt 0.649594 0.500000
vt 0.649594 0.750000
vt 0.328231 0.500000
vt 0.328231 0.750000
vt 0.625000 0.774594
vt 0.585966 0.774594
vt 0.585966 0.453231
vt 0.625000 0.453231
vt 0.553027 0.453231
vt 0.553027 0.475406
vt 0.553027 0.750000
vt 0.553027 0.774594
vt 0.553027 0.796769
vt 0.553027 0.500000
vt 0.553027 0.000000
vt 0.553027 0.774594
vt 0.553027 0.796769
vt 0.585966 0.774594
vt 0.585966 0.796769
vn 0.0000 0.0000 -1.0000
vn 1.0000 0.0000 0.0000
vn 0.0000 0.0000 1.0000
vn 0.0000 1.0000 0.0000
vn 0.0000 -1.0000 0.0000
vn -1.0000 0.0000 0.0000
usemtl None
s off
f 8/1/1 3/2/1 2/3/1 5/4/1
f 5/4/2 2/3/2 1/5/2 6/6/2
f 12/7/3 9/8/3 23/9/3 29/10/3
f 10/11/4 24/12/4 23/13/4 9/14/4
f 2/3/4 3/15/4 4/16/4 1/5/4
f 6/6/3 1/5/3 4/17/3 7/18/3
f 11/19/1 10/20/1 3/2/1 8/1/1
f 18/21/1 11/19/1 8/1/1 16/22/1
f 14/23/3 6/6/3 7/18/3 15/24/3
f 17/25/3 12/7/3 29/10/3 44/26/3
f 13/27/2 5/4/2 6/6/2 14/23/2
f 16/22/1 8/1/1 5/4/1 13/27/1
f 17/25/5 15/24/5 21/28/5 22/29/5
f 39/30/1 30/31/1 11/19/1 18/21/1
f 30/31/1 24/32/1 10/20/1 11/19/1
f 3/15/4 10/11/4 9/14/4 4/16/4
f 7/18/3 4/17/3 9/8/3 12/7/3
f 81/33/1 39/30/1 18/21/1 63/34/1
f 57/35/3 15/24/3 17/25/3 66/36/3
f 55/37/1 16/22/1 13/27/1 53/38/1
f 53/38/2 13/27/2 14/23/2 51/39/2
f 66/36/3 17/25/3 44/26/3 79/40/3
f 51/39/3 14/23/3 15/24/3 57/35/3
f 63/34/1 18/21/1 16/22/1 55/37/1
f 21/28/3 19/41/3 20/42/3 22/29/3
f 15/24/2 7/18/2 19/41/2 21/28/2
f 12/7/6 17/25/6 22/29/6 20/42/6
f 7/18/4 12/7/4 20/42/4 19/41/4
f 29/43/2 30/31/2 24/32/2 23/44/2
f 34/45/1 31/46/1 26/47/1 27/48/1
f 31/46/6 32/49/6 25/50/6 26/47/6
f 38/51/3 29/10/3 23/9/3 35/52/3
f 36/53/4 35/54/4 23/13/4 24/12/4
f 26/47/4 25/50/4 28/55/4 27/56/4
f 32/49/3 33/57/3 28/58/3 25/50/3
f 37/59/1 34/45/1 27/48/1 36/60/1
f 46/61/1 43/62/1 34/45/1 37/59/1
f 41/63/3 42/64/3 33/57/3 32/49/3
f 45/65/3 44/26/3 29/10/3 38/51/3
f 40/66/6 41/63/6 32/49/6 31/46/6
f 43/62/1 40/66/1 31/46/1 34/45/1
f 44/67/2 39/30/2 30/31/2 29/43/2
f 45/65/5 50/68/5 49/69/5 42/64/5
f 39/30/1 46/61/1 37/59/1 30/31/1
f 30/31/1 37/59/1 36/60/1 24/32/1
f 27/56/4 28/55/4 35/54/4 36/53/4
f 33/57/3 38/51/3 35/52/3 28/58/3
f 81/33/1 97/70/1 46/61/1 39/30/1
f 89/71/3 100/72/3 45/65/3 42/64/3
f 79/73/2 81/33/2 39/30/2 44/67/2
f 87/74/1 85/75/1 40/66/1 43/62/1
f 85/75/6 83/76/6 41/63/6 40/66/6
f 100/72/3 79/40/3 44/26/3 45/65/3
f 83/76/3 89/71/3 42/64/3 41/63/3
f 97/70/1 87/74/1 43/62/1 46/61/1
f 49/69/3 50/68/3 48/77/3 47/78/3
f 42/64/6 49/69/6 47/78/6 33/57/6
f 38/51/2 48/77/2 50/68/2 45/65/2
f 33/57/4 47/78/4 48/77/4 38/51/4
f 62/79/1 59/80/1 54/81/1 56/82/1
f 59/80/2 60/83/2 52/84/2 54/81/2
f 68/85/3 91/86/3 80/87/3 64/88/3
f 55/89/4 57/90/4 51/39/4 53/38/4
f 65/91/5 64/92/5 80/93/5 82/94/5
f 54/81/5 52/84/5 58/95/5 56/96/5
f 63/97/4 66/98/4 57/90/4 55/89/4
f 60/83/3 61/99/3 58/100/3 52/84/3
f 67/101/1 62/79/1 56/82/1 65/102/1
f 74/103/1 72/104/1 62/79/1 67/101/1
f 70/105/3 71/106/3 61/99/3 60/83/3
f 73/107/3 108/108/3 91/86/3 68/85/3
f 69/109/2 70/105/2 60/83/2 59/80/2
f 72/104/1 69/109/1 59/80/1 62/79/1
f 73/107/4 78/110/4 77/111/4 71/106/4
f 103/112/1 74/103/1 67/101/1 92/113/1
f 92/113/1 67/101/1 65/102/1 82/114/1
f 81/115/4 79/116/4 66/98/4 63/97/4
f 56/96/5 58/95/5 64/92/5 65/91/5
f 61/99/3 68/85/3 64/88/3 58/100/3
f 81/33/1 63/34/1 74/103/1 103/112/1
f 57/35/3 66/36/3 73/107/3 71/106/3
f 55/37/1 53/38/1 69/109/1 72/104/1
f 53/38/2 51/39/2 70/105/2 69/109/2
f 66/36/3 79/40/3 108/108/3 73/107/3
f 51/39/3 57/35/3 71/106/3 70/105/3
f 63/34/1 55/37/1 72/104/1 74/103/1
f 77/111/3 78/110/3 76/117/3 75/118/3
f 71/106/2 77/111/2 75/118/2 61/99/2
f 68/85/6 76/117/6 78/110/6 73/107/6
f 61/99/5 75/118/5 76/117/5 68/85/5
f 91/119/2 80/120/2 82/114/2 92/113/2
f 96/121/1 88/122/1 86/123/1 93/124/1
f 93/124/6 86/123/6 84/125/6 94/126/6
f 102/127/3 98/128/3 80/87/3 91/86/3
f 87/129/4 85/75/4 83/76/4 89/130/4
f 99/131/5 82/94/5 80/93/5 98/132/5
f 86/123/5 88/133/5 90/134/5 84/125/5
f 97/135/4 87/129/4 89/130/4 100/136/4
f 94/126/3 84/125/3 90/137/3 95/138/3
f 101/139/1 99/140/1 88/122/1 96/121/1
f 110/141/1 101/139/1 96/121/1 107/142/1
f 105/143/3 94/126/3 95/138/3 106/144/3
f 109/145/3 102/127/3 91/86/3 108/108/3
f 104/146/6 93/124/6 94/126/6 105/143/6
f 107/142/1 96/121/1 93/124/1 104/146/1
f 108/147/2 91/119/2 92/113/2 103/112/2
f 109/145/4 106/144/4 113/148/4 114/149/4
f 103/112/1 92/113/1 101/139/1 110/141/1
f 92/113/1 82/114/1 99/140/1 101/139/1
f 81/115/4 97/135/4 100/136/4 79/116/4
f 88/133/5 99/131/5 98/132/5 90/134/5
f 95/138/3 90/137/3 98/128/3 102/127/3
f 81/33/1 103/112/1 110/141/1 97/70/1
f 89/71/3 106/144/3 109/145/3 100/72/3
f 79/73/2 108/147/2 103/112/2 81/33/2
f 87/74/1 107/142/1 104/146/1 85/75/1
f 85/75/6 104/146/6 105/143/6 83/76/6
f 100/72/3 109/145/3 108/108/3 79/40/3
f 83/76/3 105/143/3 106/144/3 89/71/3
f 97/70/1 110/141/1 107/142/1 87/74/1
f 113/148/3 111/150/3 112/151/3 114/149/3
f 106/144/6 95/138/6 111/150/6 113/148/6
f 102/127/2 109/145/2 114/149/2 112/151/2
f 95/138/5 102/127/5 112/151/5 111/150/5
