# Blender v2.82 (sub 7) OBJ File: 'random_table.blend'
# www.blender.org
mtllib random_table26.mtl
o Table_Cube.061
v 6.787094 3.696636 0.060463
v 6.787094 3.696636 -0.060463
v 6.405238 3.696636 -0.060463
v 6.405238 3.696636 0.060463
v 6.787094 3.314781 -0.060463
v 6.787094 3.314781 0.060463
v 6.405238 3.314781 0.060463
v 6.405238 3.314781 -0.060463
v 6.044867 3.696636 0.060463
v 6.044867 3.696636 -0.060463
v 6.044867 3.314781 -0.060463
v 6.044867 3.314781 0.060463
v 6.787094 2.972370 -0.060463
v 6.787094 2.972370 0.060463
v 6.405238 2.972370 0.060463
v 6.405238 2.972370 -0.060463
v 6.044867 2.972370 0.060463
v 6.044867 2.972370 -0.060463
v 6.405238 3.314781 2.718444
v 6.044867 3.314781 2.718444
v 6.405238 2.972370 2.718444
v 6.044867 2.972370 2.718444
v 0.000000 3.696636 0.060463
v 0.000000 3.696636 -0.060463
v -6.787093 3.696636 0.060463
v -6.787093 3.696636 -0.060463
v -6.405238 3.696636 -0.060463
v -6.405238 3.696636 0.060463
v 0.000000 3.314781 0.060463
v 0.000000 3.314781 -0.060463
v -6.787093 3.314781 -0.060463
v -6.787093 3.314781 0.060463
v -6.405238 3.314781 0.060463
v -6.405238 3.314781 -0.060463
v -6.044866 3.696636 0.060463
v -6.044866 3.696636 -0.060463
v -6.044866 3.314781 -0.060463
v -6.044866 3.314781 0.060463
v 0.000000 2.972370 -0.060463
v -6.787093 2.972370 -0.060463
v -6.787093 2.972370 0.060463
v -6.405238 2.972370 0.060463
v -6.405238 2.972370 -0.060463
v 0.000000 2.972370 0.060463
v -6.044866 2.972370 0.060463
v -6.044866 2.972370 -0.060463
v -6.405238 3.314781 2.718444
v -6.044866 3.314781 2.718444
v -6.405238 2.972370 2.718444
v -6.044866 2.972370 2.718444
v 6.787093 0.000000 0.060463
v 6.787093 -3.696636 0.060463
v 6.787093 0.000000 -0.060463
v 6.787093 -3.696636 -0.060463
v 6.405238 0.000000 -0.060463
v 6.405238 -3.696636 -0.060463
v 6.405238 0.000000 0.060463
v 6.405238 -3.696636 0.060463
v 6.787093 -3.314780 -0.060463
v 6.787093 -3.314780 0.060463
v 6.405238 -3.314780 0.060463
v 6.405238 -3.314780 -0.060463
v 6.044867 0.000000 -0.060463
v 6.044866 -3.696636 0.060463
v 6.044866 -3.696636 -0.060463
v 6.044867 0.000000 0.060463
v 6.044866 -3.314780 -0.060463
v 6.044866 -3.314780 0.060463
v 6.787093 -2.972370 -0.060463
v 6.787093 -2.972370 0.060463
v 6.405238 -2.972370 0.060463
v 6.405238 -2.972370 -0.060463
v 6.044866 -2.972370 0.060463
v 6.044866 -2.972370 -0.060463
v 6.405238 -3.314780 2.718444
v 6.044866 -3.314780 2.718444
v 6.405238 -2.972370 2.718444
v 6.044866 -2.972370 2.718444
v 0.000000 0.000000 0.060463
v 0.000000 -3.696636 0.060463
v 0.000000 0.000000 -0.060463
v 0.000000 -3.696636 -0.060463
v -6.787093 0.000000 0.060463
v -6.787092 -3.696636 0.060463
v -6.787093 0.000000 -0.060463
v -6.787092 -3.696636 -0.060463
v -6.405238 0.000000 -0.060463
v -6.405237 -3.696636 -0.060463
v -6.405238 0.000000 0.060463
v -6.405237 -3.696636 0.060463
v 0.000000 -3.314780 0.060463
v 0.000000 -3.314780 -0.060463
v -6.787092 -3.314780 -0.060463
v -6.787092 -3.314780 0.060463
v -6.405237 -3.314780 0.060463
v -6.405237 -3.314780 -0.060463
v -6.044865 0.000000 -0.060463
v -6.044865 -3.696636 0.060463
v -6.044865 -3.696636 -0.060463
v -6.044865 0.000000 0.060463
v -6.044865 -3.314780 -0.060463
v -6.044865 -3.314780 0.060463
v 0.000000 -2.972370 -0.060463
v -6.787092 -2.972370 -0.060463
v -6.787092 -2.972370 0.060463
v -6.405237 -2.972370 0.060463
v -6.405237 -2.972370 -0.060463
v 0.000000 -2.972370 0.060463
v -6.044865 -2.972370 0.060463
v -6.044865 -2.972370 -0.060463
v -6.405237 -3.314780 2.718444
v -6.044865 -3.314780 2.718444
v -6.405237 -2.972370 2.718444
v -6.044865 -2.972370 2.718444
vt 0.599175 0.485934
vt 0.625000 0.485934
vt 0.625000 0.500000
vt 0.599175 0.500000
vt 0.625000 0.750000
vt 0.599175 0.750000
vt 0.599175 0.777340
vt 0.625000 0.777340
vt 0.625000 1.000000
vt 0.599175 1.000000
vt 0.652340 0.500000
vt 0.875000 0.500000
vt 0.875000 0.750000
vt 0.652340 0.750000
vt 0.639066 0.500000
vt 0.639066 0.750000
vt 0.625000 0.764066
vt 0.599175 0.764066
vt 0.599175 0.472660
vt 0.625000 0.472660
vt 0.576019 0.472660
vt 0.576019 0.485934
vt 0.576019 0.750000
vt 0.576019 0.764066
vt 0.576019 0.777340
vt 0.576019 1.000000
vt 0.576019 0.500000
vt 0.576019 0.777340
vt 0.599175 0.777340
vt 0.576019 0.250000
vt 0.599175 0.250000
vt 0.625000 0.250000
vt 0.375000 0.250000
vt 0.375000 0.472660
vt 0.375000 0.764066
vt 0.375000 0.777340
vt 0.375000 0.485934
vt 0.375000 0.500000
vt 0.375000 0.750000
vt 0.375000 1.000000
vt 0.576019 0.764066
vt 0.599175 0.764066
vt 0.599175 0.000000
vt 0.625000 0.000000
vt 0.599175 0.485934
vt 0.599175 0.500000
vt 0.625000 0.500000
vt 0.625000 0.485934
vt 0.599175 0.750000
vt 0.625000 0.750000
vt 0.599175 0.777340
vt 0.625000 0.777340
vt 0.652340 0.500000
vt 0.652340 0.750000
vt 0.639066 0.750000
vt 0.639066 0.500000
vt 0.599175 0.764066
vt 0.625000 0.764066
vt 0.599175 0.472660
vt 0.625000 0.472660
vt 0.576019 0.472660
vt 0.576019 0.485934
vt 0.576019 0.750000
vt 0.576019 0.764066
vt 0.576019 0.777340
vt 0.576019 0.500000
vt 0.576019 0.000000
vt 0.599175 0.777340
vt 0.576019 0.777340
vt 0.375000 0.472660
vt 0.375000 0.764066
vt 0.375000 0.777340
vt 0.375000 0.000000
vt 0.375000 0.485934
vt 0.375000 0.500000
vt 0.375000 0.750000
vt 0.576019 0.764066
vt 0.599175 0.764066
vt 0.599175 0.485934
vt 0.599175 0.500000
vt 0.625000 0.500000
vt 0.625000 0.485934
vt 0.599175 0.750000
vt 0.625000 0.750000
vt 0.599175 0.777340
vt 0.599175 1.000000
vt 0.625000 1.000000
vt 0.625000 0.777340
vt 0.360934 0.500000
vt 0.360934 0.750000
vt 0.652340 0.500000
vt 0.652340 0.750000
vt 0.875000 0.750000
vt 0.875000 0.500000
vt 0.639066 0.750000
vt 0.639066 0.500000
vt 0.347660 0.500000
vt 0.347660 0.750000
vt 0.599175 0.764066
vt 0.625000 0.764066
vt 0.599175 0.472660
vt 0.625000 0.472660
vt 0.576019 0.472660
vt 0.576019 0.485934
vt 0.576019 0.750000
vt 0.576019 0.764066
vt 0.576019 0.777340
vt 0.576019 1.000000
vt 0.576019 0.500000
vt 0.599175 0.777340
vt 0.576019 0.777340
vt 0.576019 0.250000
vt 0.599175 0.250000
vt 0.625000 0.250000
vt 0.125000 0.500000
vt 0.125000 0.750000
vt 0.576019 0.764066
vt 0.599175 0.764066
vt 0.599175 0.000000
vt 0.625000 0.000000
vt 0.599175 0.485934
vt 0.625000 0.485934
vt 0.625000 0.500000
vt 0.599175 0.500000
vt 0.625000 0.750000
vt 0.599175 0.750000
vt 0.599175 0.777340
vt 0.625000 0.777340
vt 0.360934 0.500000
vt 0.360934 0.750000
vt 0.652340 0.500000
vt 0.652340 0.750000
vt 0.639066 0.500000
vt 0.639066 0.750000
vt 0.347660 0.500000
vt 0.347660 0.750000
vt 0.625000 0.764066
vt 0.599175 0.764066
vt 0.599175 0.472660
vt 0.625000 0.472660
vt 0.576019 0.472660
vt 0.576019 0.485934
vt 0.576019 0.750000
vt 0.576019 0.764066
vt 0.576019 0.777340
vt 0.576019 0.500000
vt 0.576019 0.000000
vt 0.576019 0.777340
vt 0.599175 0.777340
vt 0.576019 0.764066
vt 0.599175 0.764066
vn 0.0000 0.0000 -1.0000
vn 1.0000 0.0000 0.0000
vn 0.0000 0.0000 1.0000
vn 0.0000 1.0000 0.0000
vn -1.0000 0.0000 0.0000
vn 0.0000 -1.0000 0.0000
usemtl None
s off
f 8/1/1 3/2/1 2/3/1 5/4/1
f 5/4/2 2/3/2 1/5/2 6/6/2
f 12/7/3 9/8/3 23/9/3 29/10/3
f 10/11/4 24/12/4 23/13/4 9/14/4
f 2/3/4 3/15/4 4/16/4 1/5/4
f 6/6/3 1/5/3 4/17/3 7/18/3
f 11/19/1 10/20/1 3/2/1 8/1/1
f 18/21/1 11/19/1 8/1/1 16/22/1
f 14/23/3 6/6/3 7/18/3 15/24/3
f 17/25/3 12/7/3 29/10/3 44/26/3
f 13/27/2 5/4/2 6/6/2 14/23/2
f 16/22/1 8/1/1 5/4/1 13/27/1
f 12/7/5 17/25/5 22/28/5 20/29/5
f 39/30/1 30/31/1 11/19/1 18/21/1
f 30/31/1 24/32/1 10/20/1 11/19/1
f 3/15/4 10/11/4 9/14/4 4/16/4
f 7/18/3 4/17/3 9/8/3 12/7/3
f 81/33/1 39/30/1 18/21/1 63/34/1
f 57/35/3 15/24/3 17/25/3 66/36/3
f 55/37/1 16/22/1 13/27/1 53/38/1
f 53/38/2 13/27/2 14/23/2 51/39/2
f 66/36/3 17/25/3 44/26/3 79/40/3
f 51/39/3 14/23/3 15/24/3 57/35/3
f 63/34/1 18/21/1 16/22/1 55/37/1
f 21/41/3 19/42/3 20/29/3 22/28/3
f 7/18/4 12/7/4 20/29/4 19/42/4
f 17/25/6 15/24/6 21/41/6 22/28/6
f 15/24/2 7/18/2 19/42/2 21/41/2
f 29/43/2 30/31/2 24/32/2 23/44/2
f 34/45/1 31/46/1 26/47/1 27/48/1
f 31/46/5 32/49/5 25/50/5 26/47/5
f 38/51/3 29/10/3 23/9/3 35/52/3
f 36/53/4 35/54/4 23/13/4 24/12/4
f 26/47/4 25/50/4 28/55/4 27/56/4
f 32/49/3 33/57/3 28/58/3 25/50/3
f 37/59/1 34/45/1 27/48/1 36/60/1
f 46/61/1 43/62/1 34/45/1 37/59/1
f 41/63/3 42/64/3 33/57/3 32/49/3
f 45/65/3 44/26/3 29/10/3 38/51/3
f 40/66/5 41/63/5 32/49/5 31/46/5
f 43/62/1 40/66/1 31/46/1 34/45/1
f 44/67/2 39/30/2 30/31/2 29/43/2
f 38/51/2 48/68/2 50/69/2 45/65/2
f 39/30/1 46/61/1 37/59/1 30/31/1
f 30/31/1 37/59/1 36/60/1 24/32/1
f 27/56/4 28/55/4 35/54/4 36/53/4
f 33/57/3 38/51/3 35/52/3 28/58/3
f 81/33/1 97/70/1 46/61/1 39/30/1
f 89/71/3 100/72/3 45/65/3 42/64/3
f 79/73/2 81/33/2 39/30/2 44/67/2
f 87/74/1 85/75/1 40/66/1 43/62/1
f 85/75/5 83/76/5 41/63/5 40/66/5
f 100/72/3 79/40/3 44/26/3 45/65/3
f 83/76/3 89/71/3 42/64/3 41/63/3
f 97/70/1 87/74/1 43/62/1 46/61/1
f 49/77/3 50/69/3 48/68/3 47/78/3
f 33/57/4 47/78/4 48/68/4 38/51/4
f 45/65/6 50/69/6 49/77/6 42/64/6
f 42/64/5 49/77/5 47/78/5 33/57/5
f 62/79/1 59/80/1 54/81/1 56/82/1
f 59/80/2 60/83/2 52/84/2 54/81/2
f 68/85/3 91/86/3 80/87/3 64/88/3
f 55/89/4 57/90/4 51/39/4 53/38/4
f 65/91/6 64/92/6 80/93/6 82/94/6
f 54/81/6 52/84/6 58/95/6 56/96/6
f 63/97/4 66/98/4 57/90/4 55/89/4
f 60/83/3 61/99/3 58/100/3 52/84/3
f 67/101/1 62/79/1 56/82/1 65/102/1
f 74/103/1 72/104/1 62/79/1 67/101/1
f 70/105/3 71/106/3 61/99/3 60/83/3
f 73/107/3 108/108/3 91/86/3 68/85/3
f 69/109/2 70/105/2 60/83/2 59/80/2
f 72/104/1 69/109/1 59/80/1 62/79/1
f 68/85/5 76/110/5 78/111/5 73/107/5
f 103/112/1 74/103/1 67/101/1 92/113/1
f 92/113/1 67/101/1 65/102/1 82/114/1
f 81/115/4 79/116/4 66/98/4 63/97/4
f 56/96/6 58/95/6 64/92/6 65/91/6
f 61/99/3 68/85/3 64/88/3 58/100/3
f 81/33/1 63/34/1 74/103/1 103/112/1
f 57/35/3 66/36/3 73/107/3 71/106/3
f 55/37/1 53/38/1 69/109/1 72/104/1
f 53/38/2 51/39/2 70/105/2 69/109/2
f 66/36/3 79/40/3 108/108/3 73/107/3
f 51/39/3 57/35/3 71/106/3 70/105/3
f 63/34/1 55/37/1 72/104/1 74/103/1
f 77/117/3 78/111/3 76/110/3 75/118/3
f 61/99/6 75/118/6 76/110/6 68/85/6
f 73/107/4 78/111/4 77/117/4 71/106/4
f 71/106/2 77/117/2 75/118/2 61/99/2
f 91/119/2 80/120/2 82/114/2 92/113/2
f 96/121/1 88/122/1 86/123/1 93/124/1
f 93/124/5 86/123/5 84/125/5 94/126/5
f 102/127/3 98/128/3 80/87/3 91/86/3
f 87/129/4 85/75/4 83/76/4 89/130/4
f 99/131/6 82/94/6 80/93/6 98/132/6
f 86/123/6 88/133/6 90/134/6 84/125/6
f 97/135/4 87/129/4 89/130/4 100/136/4
f 94/126/3 84/125/3 90/137/3 95/138/3
f 101/139/1 99/140/1 88/122/1 96/121/1
f 110/141/1 101/139/1 96/121/1 107/142/1
f 105/143/3 94/126/3 95/138/3 106/144/3
f 109/145/3 102/127/3 91/86/3 108/108/3
f 104/146/5 93/124/5 94/126/5 105/143/5
f 107/142/1 96/121/1 93/124/1 104/146/1
f 108/147/2 91/119/2 92/113/2 103/112/2
f 102/127/2 109/145/2 114/148/2 112/149/2
f 103/112/1 92/113/1 101/139/1 110/141/1
f 92/113/1 82/114/1 99/140/1 101/139/1
f 81/115/4 97/135/4 100/136/4 79/116/4
f 88/133/6 99/131/6 98/132/6 90/134/6
f 95/138/3 90/137/3 98/128/3 102/127/3
f 81/33/1 103/112/1 110/141/1 97/70/1
f 89/71/3 106/144/3 109/145/3 100/72/3
f 79/73/2 108/147/2 103/112/2 81/33/2
f 87/74/1 107/142/1 104/146/1 85/75/1
f 85/75/5 104/146/5 105/143/5 83/76/5
f 100/72/3 109/145/3 108/108/3 79/40/3
f 83/76/3 105/143/3 106/144/3 89/71/3
f 97/70/1 110/141/1 107/142/1 87/74/1
f 113/150/3 111/151/3 112/149/3 114/148/3
f 95/138/6 102/127/6 112/149/6 111/151/6
f 109/145/4 106/144/4 113/150/4 114/148/4
f 106/144/5 95/138/5 111/151/5 113/150/5
