<?xml version="1.0" encoding="UTF-8" standalone="no"?>
<!-- Created with Inkscape (http://www.inkscape.org/) -->

<svg
   xmlns:rendltx="http://NOTSET"
   xmlns:dc="http://purl.org/dc/elements/1.1/"
   xmlns:cc="http://creativecommons.org/ns#"
   xmlns:rdf="http://www.w3.org/1999/02/22-rdf-syntax-ns#"
   xmlns:svg="http://www.w3.org/2000/svg"
   xmlns="http://www.w3.org/2000/svg"
   xmlns:xlink="http://www.w3.org/1999/xlink"
   xmlns:sodipodi="http://sodipodi.sourceforge.net/DTD/sodipodi-0.dtd"
   xmlns:inkscape="http://www.inkscape.org/namespaces/inkscape"
   width="210mm"
   height="297mm"
   viewBox="0 0 210 297"
   version="1.1"
   id="svg8"
   inkscape:version="0.92.4 (5da689c313, 2019-01-14)"
   sodipodi:docname="tex-to-text.svg">
  <defs
     id="defs2" />
  <sodipodi:namedview
     id="base"
     pagecolor="#ffffff"
     bordercolor="#666666"
     borderopacity="1.0"
     inkscape:pageopacity="0.0"
     inkscape:pageshadow="2"
     inkscape:zoom="0.9899495"
     inkscape:cx="271.70557"
     inkscape:cy="842.92609"
     inkscape:document-units="mm"
     inkscape:current-layer="ltx-render-layer"
     showgrid="false"
     inkscape:window-width="1920"
     inkscape:window-height="1137"
     inkscape:window-x="1192"
     inkscape:window-y="302"
     inkscape:window-maximized="1" />
  <metadata
     id="metadata5">
    <rdf:RDF>
      <cc:Work
         rdf:about="">
        <dc:format>image/svg+xml</dc:format>
        <dc:type
           rdf:resource="http://purl.org/dc/dcmitype/StillImage" />
        <dc:title></dc:title>
      </cc:Work>
    </rdf:RDF>
  </metadata>
  <g
     inkscape:label="Ebene 1"
     inkscape:groupmode="layer"
     id="layer1" />
  <g
     rendltx:math="False"
     rendltx:newline="False"
     rendltx:fontsize="10"
     rendltx:depth="0"
     rendltx:scale="1.0"
     rendltx:packages="amsmath,amssymb"
     rendltx:preamble="C:\users\hofmann\desktop\inkscape-preambel.tex"
     id="ltx-render-layer"
     inkscape:groupmode="layer"
     inkscape:label="Rendered Latex">
    <text
       id="text1004"
       y="117.92941"
       x="30.201456"
       style="font-style:normal;font-variant:normal;font-weight:normal;font-stretch:normal;font-size:5.64444447px;line-height:1.25;font-family:'Iwona Cond';-inkscape-font-specification:'Iwona Cond, Normal';font-variant-ligatures:normal;font-variant-caps:normal;font-variant-numeric:normal;font-feature-settings:normal;text-align:start;letter-spacing:0px;word-spacing:0px;writing-mode:lr-tb;text-anchor:start;fill:#000000;fill-opacity:1;stroke:none;stroke-width:0.26458332"
       xml:space="preserve"><tspan
         style="stroke-width:0.26458332"
         y="117.92941"
         x="30.201456"
         id="tspan1002"
         sodipodi:role="line">$\dot W_\text{net}=30\,\text{MW}$</tspan></text>
    <text
       xml:space="preserve"
       style="font-style:normal;font-variant:normal;font-weight:normal;font-stretch:normal;font-size:5.64444447px;line-height:1.25;font-family:'Iwona Cond';-inkscape-font-specification:'Iwona Cond, Normal';font-variant-ligatures:normal;font-variant-caps:normal;font-variant-numeric:normal;font-feature-settings:normal;text-align:start;letter-spacing:0px;word-spacing:0px;writing-mode:lr-tb;text-anchor:start;fill:#000000;fill-opacity:1;stroke:none;stroke-width:0.26458332"
       x="35.529758"
       y="157.71577"
       id="text1050"><tspan
         sodipodi:role="line"
         id="tspan1048"
         x="35.529758"
         y="157.71577"
         style="stroke-width:0.26458332">$\Delta \dot H$</tspan></text>
    <g
       id="lx-text1004"
       transform="matrix(0.352778,0.000000,0.000000,0.352778,29.132378,133.431050)">
      <defs
         id="defs1420">
        <g
           id="g1418">
          <symbol
             id="lx-text1004-glyph0-0"
             overflow="visible">
            <path
               id="path1376"
               d="M 0.5 -6.015625 L 2.1875 -3.484375 L 0.5 -0.953125 Z M 0.796875 -0.5 L 2.5 -3.03125 L 4.1875 -0.5 Z M 2.796875 -3.484375 L 4.484375 -6.015625 L 4.484375 -0.953125 Z M 2.5 -3.921875 L 0.796875 -6.453125 L 4.1875 -6.453125 Z M 0 0 L 4.984375 0 L 4.984375 -6.953125 L 0 -6.953125 Z M 0 0 "
               style="stroke:none;" />
          </symbol>
          <symbol
             id="lx-text1004-glyph0-1"
             overflow="visible">
            <path
               id="path1379"
               d="M 0 -5.734375 C 0 -5.484375 0.234375 -5.21875 0.484375 -5.21875 C 0.75 -5.21875 1 -5.5 1 -5.703125 C 1 -5.9375 0.78125 -6.21875 0.515625 -6.21875 C 0.28125 -6.21875 0 -5.984375 0 -5.734375 Z M 0 -5.734375 "
               style="stroke:none;" />
          </symbol>
          <symbol
             id="lx-text1004-glyph0-2"
             overflow="visible">
            <path
               id="path1382"
               d="M 6.125 -5.828125 L 5.703125 -5.828125 L 3.734375 -2.15625 L 3.359375 -1.515625 L 3.296875 -2.171875 L 2.953125 -5.703125 L 2.953125 -5.734375 C 2.953125 -6.046875 3.3125 -6.140625 3.65625 -6.15625 C 3.6875 -6.1875 3.703125 -6.25 3.703125 -6.296875 C 3.703125 -6.359375 3.6875 -6.421875 3.65625 -6.453125 C 3.328125 -6.4375 2.828125 -6.4375 2.46875 -6.4375 C 2.140625 -6.4375 1.75 -6.4375 1.390625 -6.453125 C 1.359375 -6.421875 1.34375 -6.359375 1.34375 -6.296875 C 1.34375 -6.25 1.359375 -6.1875 1.390625 -6.15625 C 1.859375 -6.078125 2.109375 -5.984375 2.15625 -5.4375 L 2.765625 -0.125 C 2.78125 0.046875 2.796875 0.09375 2.90625 0.09375 C 2.984375 0.09375 3.015625 0.0625 3.109375 -0.125 L 5.0625 -3.6875 C 5.21875 -3.953125 5.359375 -4.25 5.4375 -4.359375 C 5.4375 -4.359375 5.46875 -4.359375 5.484375 -4.328125 C 5.5 -4.109375 5.53125 -4 5.578125 -3.65625 L 5.984375 -0.125 C 6.015625 0.0625 6.078125 0.09375 6.15625 0.09375 C 6.234375 0.09375 6.265625 0.0625 6.375 -0.109375 L 9.375 -5.515625 C 9.5625 -5.84375 9.796875 -6.09375 10.328125 -6.15625 C 10.359375 -6.1875 10.375 -6.25 10.375 -6.296875 C 10.375 -6.359375 10.359375 -6.421875 10.328125 -6.453125 C 10 -6.4375 9.609375 -6.4375 9.34375 -6.4375 C 9.09375 -6.4375 8.625 -6.4375 8.21875 -6.453125 C 8.1875 -6.421875 8.1875 -6.359375 8.1875 -6.296875 C 8.1875 -6.25 8.1875 -6.1875 8.21875 -6.15625 C 8.625 -6.125 8.921875 -6.03125 8.921875 -5.796875 C 8.921875 -5.734375 8.90625 -5.671875 8.859375 -5.59375 C 8.109375 -4.21875 7.359375 -2.84375 6.625 -1.453125 C 6.46875 -2.84375 6.28125 -4.453125 6.125 -5.828125 Z M 6.125 -5.828125 "
               style="stroke:none;" />
          </symbol>
          <symbol
             id="lx-text1004-glyph1-0"
             overflow="visible">
            <path
               id="path1385"
               d="M 0.390625 -4.8125 L 1.75 -2.78125 L 0.390625 -0.75 Z M 0.640625 -0.390625 L 1.984375 -2.421875 L 3.34375 -0.390625 Z M 2.234375 -2.78125 L 3.578125 -4.8125 L 3.578125 -0.75 Z M 1.984375 -3.140625 L 0.640625 -5.15625 L 3.34375 -5.15625 Z M 0 0 L 3.984375 0 L 3.984375 -5.5625 L 0 -5.5625 Z M 0 0 "
               style="stroke:none;" />
          </symbol>
          <symbol
             id="lx-text1004-glyph1-1"
             overflow="visible">
            <path
               id="path1388"
               d="M 1.46875 -2.859375 C 1.421875 -2.796875 1.375 -2.78125 1.375 -2.859375 C 1.359375 -3.0625 1.34375 -3.375 1.3125 -3.453125 C 1.296875 -3.5 1.28125 -3.515625 1.21875 -3.515625 C 0.984375 -3.4375 0.78125 -3.359375 0.234375 -3.296875 C 0.21875 -3.25 0.234375 -3.109375 0.25 -3.0625 C 0.671875 -3.03125 0.765625 -2.984375 0.765625 -2.53125 L 0.765625 -0.96875 C 0.765625 -0.3125 0.6875 -0.28125 0.203125 -0.25 C 0.15625 -0.203125 0.15625 -0.03125 0.203125 0.015625 C 0.453125 0.015625 0.765625 0 1.078125 0 C 1.40625 0 1.640625 0.015625 1.875 0.015625 C 1.921875 -0.03125 1.921875 -0.203125 1.875 -0.25 C 1.46875 -0.28125 1.390625 -0.3125 1.390625 -0.96875 L 1.390625 -2.28125 C 1.390625 -2.453125 1.46875 -2.546875 1.53125 -2.609375 C 1.828125 -2.90625 2.1875 -3.078125 2.5 -3.078125 C 2.65625 -3.078125 2.828125 -2.984375 2.921875 -2.796875 C 3 -2.640625 3.015625 -2.421875 3.015625 -2.1875 L 3.015625 -0.96875 C 3.015625 -0.3125 2.9375 -0.28125 2.53125 -0.25 C 2.484375 -0.203125 2.484375 -0.03125 2.53125 0.015625 C 2.765625 0.015625 3.015625 0 3.34375 0 C 3.65625 0 3.9375 0.015625 4.1875 0.015625 C 4.21875 -0.03125 4.21875 -0.203125 4.1875 -0.25 C 3.734375 -0.28125 3.65625 -0.3125 3.65625 -0.96875 L 3.65625 -2.15625 C 3.65625 -2.59375 3.625 -2.984375 3.4375 -3.234375 C 3.296875 -3.40625 3.046875 -3.5 2.765625 -3.5 C 2.375 -3.5 1.9375 -3.390625 1.46875 -2.859375 Z M 1.46875 -2.859375 "
               style="stroke:none;" />
          </symbol>
          <symbol
             id="lx-text1004-glyph1-2"
             overflow="visible">
            <path
               id="path1391"
               d="M 0.984375 -2.25 C 1.140625 -3.140625 1.703125 -3.21875 1.890625 -3.21875 C 2.1875 -3.21875 2.546875 -3.046875 2.546875 -2.375 C 2.546875 -2.3125 2.515625 -2.265625 2.4375 -2.265625 Z M 3.078125 -0.734375 C 2.78125 -0.4375 2.546875 -0.3125 2.09375 -0.3125 C 1.796875 -0.3125 1.46875 -0.484375 1.21875 -0.890625 C 1.0625 -1.140625 0.96875 -1.515625 0.96875 -1.96875 L 3.078125 -1.953125 C 3.171875 -1.953125 3.234375 -2.015625 3.234375 -2.09375 C 3.234375 -2.765625 3 -3.484375 1.890625 -3.484375 C 1.1875 -3.484375 0.296875 -2.828125 0.296875 -1.609375 C 0.296875 -1.15625 0.40625 -0.734375 0.671875 -0.4375 C 0.9375 -0.109375 1.3125 0.078125 1.890625 0.078125 C 2.5 0.078125 2.921875 -0.203125 3.25 -0.609375 C 3.21875 -0.6875 3.171875 -0.734375 3.078125 -0.734375 Z M 3.078125 -0.734375 "
               style="stroke:none;" />
          </symbol>
          <symbol
             id="lx-text1004-glyph1-3"
             overflow="visible">
            <path
               id="path1394"
               d="M 0.34375 -3.421875 C 0.234375 -3.421875 0.203125 -3.328125 0.203125 -3.265625 L 0.203125 -3.15625 C 0.203125 -3.109375 0.203125 -3.109375 0.234375 -3.109375 L 0.703125 -3.109375 L 0.703125 -0.703125 C 0.703125 -0.140625 0.953125 0.078125 1.328125 0.078125 C 1.6875 0.078125 2.09375 -0.09375 2.40625 -0.453125 C 2.375 -0.53125 2.328125 -0.578125 2.25 -0.578125 C 2.046875 -0.421875 1.8125 -0.359375 1.609375 -0.359375 C 1.390625 -0.359375 1.34375 -0.59375 1.34375 -1.09375 L 1.34375 -3.109375 L 2.171875 -3.109375 C 2.25 -3.109375 2.359375 -3.140625 2.359375 -3.21875 L 2.359375 -3.375 C 2.359375 -3.40625 2.328125 -3.421875 2.296875 -3.421875 L 1.34375 -3.421875 L 1.34375 -3.734375 C 1.34375 -4.25 1.375 -4.5625 1.375 -4.5625 C 1.375 -4.609375 1.34375 -4.640625 1.3125 -4.640625 C 1.28125 -4.640625 1.203125 -4.609375 1.125 -4.5625 C 1.046875 -4.515625 0.96875 -4.484375 0.859375 -4.453125 C 0.765625 -4.421875 0.6875 -4.40625 0.6875 -4.34375 C 0.6875 -4.25 0.703125 -4.296875 0.703125 -3.421875 Z M 0.34375 -3.421875 "
               style="stroke:none;" />
          </symbol>
          <symbol
             id="lx-text1004-glyph2-0"
             overflow="visible">
            <path
               id="path1397"
               d="M 0.5 -6.015625 L 2.1875 -3.484375 L 0.5 -0.953125 Z M 0.796875 -0.5 L 2.5 -3.03125 L 4.1875 -0.5 Z M 2.796875 -3.484375 L 4.484375 -6.015625 L 4.484375 -0.953125 Z M 2.5 -3.921875 L 0.796875 -6.453125 L 4.1875 -6.453125 Z M 0 0 L 4.984375 0 L 4.984375 -6.953125 L 0 -6.953125 Z M 0 0 "
               style="stroke:none;" />
          </symbol>
          <symbol
             id="lx-text1004-glyph2-1"
             overflow="visible">
            <path
               id="path1400"
               d="M 4.625 -3.09375 C 4.75 -3.09375 4.890625 -3.328125 4.890625 -3.421875 C 4.890625 -3.515625 4.84375 -3.59375 4.75 -3.59375 L 0.84375 -3.59375 C 0.71875 -3.59375 0.59375 -3.40625 0.59375 -3.265625 C 0.59375 -3.1875 0.640625 -3.09375 0.734375 -3.09375 Z M 4.625 -1.453125 C 4.75 -1.453125 4.890625 -1.671875 4.890625 -1.78125 C 4.890625 -1.859375 4.84375 -1.9375 4.75 -1.9375 L 0.84375 -1.9375 C 0.71875 -1.9375 0.59375 -1.75 0.59375 -1.609375 C 0.59375 -1.53125 0.640625 -1.453125 0.734375 -1.453125 Z M 4.625 -1.453125 "
               style="stroke:none;" />
          </symbol>
          <symbol
             id="lx-text1004-glyph2-2"
             overflow="visible">
            <path
               id="path1403"
               d="M 2.359375 -6.078125 C 0.890625 -6.078125 0.46875 -5.125 0.46875 -4.796875 C 0.46875 -4.65625 0.5625 -4.453125 0.8125 -4.453125 C 1.15625 -4.453125 1.203125 -4.78125 1.203125 -4.96875 C 1.203125 -5.609375 1.890625 -5.734375 2.140625 -5.734375 C 2.578125 -5.734375 2.96875 -5.46875 2.96875 -4.828125 C 2.96875 -4.328125 2.390625 -3.5625 1.40625 -3.421875 L 1.453125 -3.109375 C 1.625 -3.125 1.796875 -3.125 1.9375 -3.125 C 2.5 -3.125 3.234375 -2.96875 3.234375 -1.84375 C 3.234375 -0.515625 2.359375 -0.25 2 -0.25 C 1.5 -0.25 1.40625 -0.484375 1.28125 -0.65625 C 1.1875 -0.796875 1.0625 -0.921875 0.859375 -0.921875 C 0.640625 -0.921875 0.4375 -0.734375 0.4375 -0.5625 C 0.4375 -0.171875 1.28125 0.09375 1.875 0.09375 C 3.0625 0.09375 4.109375 -0.671875 4.109375 -1.984375 C 4.109375 -3.078125 3.296875 -3.453125 2.71875 -3.5625 L 2.703125 -3.578125 C 3.515625 -3.96875 3.75 -4.375 3.75 -4.90625 C 3.75 -5.625 3.203125 -6.078125 2.359375 -6.078125 Z M 2.359375 -6.078125 "
               style="stroke:none;" />
          </symbol>
          <symbol
             id="lx-text1004-glyph2-3"
             overflow="visible">
            <path
               id="path1406"
               d="M 2.3125 -5.734375 C 2.484375 -5.734375 2.640625 -5.671875 2.765625 -5.5625 C 3.078125 -5.296875 3.34375 -4.546875 3.34375 -3.203125 C 3.34375 -2.296875 3.3125 -1.671875 3.171875 -1.15625 C 2.953125 -0.34375 2.46875 -0.25 2.28125 -0.25 C 1.359375 -0.25 1.25 -1.953125 1.25 -2.828125 C 1.25 -5.28125 1.859375 -5.734375 2.3125 -5.734375 Z M 2.265625 0.09375 C 3.046875 0.09375 4.203125 -0.671875 4.203125 -3.015625 C 4.203125 -4 3.96875 -4.859375 3.53125 -5.4375 C 3.265625 -5.78125 2.84375 -6.078125 2.3125 -6.078125 C 1.328125 -6.078125 0.390625 -4.90625 0.390625 -2.9375 C 0.390625 -1.859375 0.71875 -0.859375 1.265625 -0.3125 C 1.546875 -0.046875 1.890625 0.09375 2.265625 0.09375 Z M 2.265625 0.09375 "
               style="stroke:none;" />
          </symbol>
          <symbol
             id="lx-text1004-glyph3-0"
             overflow="visible">
            <path
               id="path1409"
               d="M 0.5 -6.015625 L 2.1875 -3.484375 L 0.5 -0.953125 Z M 0.796875 -0.5 L 2.5 -3.03125 L 4.1875 -0.5 Z M 2.796875 -3.484375 L 4.484375 -6.015625 L 4.484375 -0.953125 Z M 2.5 -3.921875 L 0.796875 -6.453125 L 4.1875 -6.453125 Z M 0 0 L 4.984375 0 L 4.984375 -6.953125 L 0 -6.953125 Z M 0 0 "
               style="stroke:none;" />
          </symbol>
          <symbol
             id="lx-text1004-glyph3-1"
             overflow="visible">
            <path
               id="path1412"
               d="M 6.609375 -1.15625 C 6.65625 -0.34375 6.625 -0.34375 5.96875 -0.3125 C 5.90625 -0.25 5.90625 -0.046875 5.96875 0.015625 C 6.34375 0.015625 6.734375 0 7.03125 0 C 7.34375 0 7.796875 0.015625 8.125 0.015625 C 8.1875 -0.046875 8.1875 -0.25 8.125 -0.3125 C 7.453125 -0.34375 7.421875 -0.375 7.359375 -1.203125 L 7.0625 -5.40625 C 7.015625 -5.9375 7.0625 -6.078125 7.75 -6.125 C 7.8125 -6.1875 7.8125 -6.390625 7.75 -6.453125 L 6.4375 -6.4375 L 4.328125 -1.375 C 4.28125 -1.28125 4.25 -1.234375 4.234375 -1.234375 C 4.21875 -1.234375 4.1875 -1.28125 4.15625 -1.359375 L 2.109375 -6.4375 L 0.671875 -6.453125 C 0.609375 -6.390625 0.609375 -6.1875 0.671875 -6.125 C 1.359375 -6.078125 1.421875 -6.0625 1.34375 -5.3125 L 0.953125 -1.203125 C 0.890625 -0.609375 0.765625 -0.359375 0.203125 -0.3125 C 0.140625 -0.25 0.140625 -0.046875 0.203125 0.015625 C 0.5 0.015625 0.8125 0 1.0625 0 C 1.296875 0 1.6875 0.015625 2 0.015625 C 2.046875 -0.046875 2.046875 -0.25 2 -0.3125 C 1.328125 -0.359375 1.28125 -0.671875 1.328125 -1.21875 L 1.71875 -5.21875 L 1.734375 -5.21875 L 3.796875 -0.046875 C 3.828125 0.015625 3.890625 0.09375 3.953125 0.09375 C 4 0.09375 4.046875 0.03125 4.09375 -0.046875 L 6.328125 -5.328125 L 6.34375 -5.328125 Z M 6.609375 -1.15625 "
               style="stroke:none;" />
          </symbol>
          <symbol
             id="lx-text1004-glyph3-2"
             overflow="visible">
            <path
               id="path1415"
               d="M 8.078125 -5.625 L 6.515625 -1.3125 L 6.484375 -1.3125 L 5.109375 -5.515625 C 4.9375 -6.0625 5.296875 -6.09375 5.625 -6.125 C 5.6875 -6.1875 5.6875 -6.390625 5.625 -6.453125 C 5.21875 -6.4375 4.78125 -6.4375 4.390625 -6.4375 C 4.0625 -6.4375 3.703125 -6.4375 3.390625 -6.453125 C 3.328125 -6.390625 3.328125 -6.1875 3.390625 -6.125 C 3.921875 -6.09375 4.140625 -5.78125 4.234375 -5.515625 L 4.453125 -4.859375 C 4.5 -4.75 4.53125 -4.640625 4.53125 -4.5625 C 4.53125 -4.453125 4.515625 -4.375 4.4375 -4.203125 L 3.15625 -1.28125 L 3.09375 -1.296875 L 1.640625 -5.703125 C 1.53125 -6.046875 1.796875 -6.09375 2.140625 -6.125 C 2.203125 -6.1875 2.203125 -6.390625 2.140625 -6.453125 C 1.8125 -6.4375 1.375 -6.4375 0.984375 -6.4375 C 0.640625 -6.4375 0.34375 -6.4375 0.0625 -6.453125 C 0 -6.390625 0 -6.1875 0.0625 -6.125 C 0.515625 -6.09375 0.578125 -6.078125 0.765625 -5.546875 L 2.640625 -0.15625 C 2.6875 0.015625 2.75 0.125 2.859375 0.125 C 2.984375 0.125 3.046875 0.015625 3.125 -0.15625 L 4.609375 -3.484375 C 4.6875 -3.6875 4.71875 -3.734375 4.78125 -3.734375 C 4.8125 -3.734375 4.859375 -3.625 4.921875 -3.453125 L 6.0625 -0.15625 C 6.125 0.015625 6.171875 0.125 6.296875 0.125 C 6.40625 0.125 6.46875 0.015625 6.515625 -0.140625 L 8.515625 -5.515625 C 8.65625 -5.859375 8.828125 -6.09375 9.375 -6.125 C 9.4375 -6.1875 9.4375 -6.390625 9.375 -6.453125 C 9.09375 -6.4375 8.765625 -6.4375 8.515625 -6.4375 C 8.25 -6.4375 7.8125 -6.4375 7.421875 -6.453125 C 7.359375 -6.390625 7.359375 -6.1875 7.421875 -6.125 C 7.828125 -6.09375 8.21875 -6.0625 8.078125 -5.625 Z M 8.078125 -5.625 "
               style="stroke:none;" />
          </symbol>
        </g>
      </defs>
      <g
         id="lx-text1004-surface1">
        <g
           id="g1424"
           style="fill:rgb(0%,0%,0%);fill-opacity:1;">
          <use
             id="use1422"
             y="-2.271"
             x="5.28"
             xlink:href="#lx-text1004-glyph0-1" />
        </g>
        <g
           id="g1428"
           style="fill:rgb(0%,0%,0%);fill-opacity:1;">
          <use
             id="use1426"
             y="0.0"
             x="0.0"
             xlink:href="#lx-text1004-glyph0-2" />
        </g>
        <g
           id="g1436"
           style="fill:rgb(0%,0%,0%);fill-opacity:1;">
          <use
             id="use1430"
             y="1.495"
             x="9.056"
             xlink:href="#lx-text1004-glyph1-1" />
          <use
             id="use1432"
             y="1.495"
             x="13.375794"
             xlink:href="#lx-text1004-glyph1-2" />
          <use
             id="use1434"
             y="1.495"
             x="16.938429"
             xlink:href="#lx-text1004-glyph1-3" />
        </g>
        <g
           id="g1440"
           style="fill:rgb(0%,0%,0%);fill-opacity:1;">
          <use
             id="use1438"
             y="0.0"
             x="22.723"
             xlink:href="#lx-text1004-glyph2-1" />
        </g>
        <g
           id="g1446"
           style="fill:rgb(0%,0%,0%);fill-opacity:1;">
          <use
             id="use1442"
             y="0.0"
             x="30.972033"
             xlink:href="#lx-text1004-glyph2-2" />
          <use
             id="use1444"
             y="0.0"
             x="35.604642"
             xlink:href="#lx-text1004-glyph2-3" />
        </g>
        <g
           id="g1452"
           style="fill:rgb(0%,0%,0%);fill-opacity:1;">
          <use
             id="use1448"
             y="0.0"
             x="41.895"
             xlink:href="#lx-text1004-glyph3-1" />
          <use
             id="use1450"
             y="0.0"
             x="50.253621"
             xlink:href="#lx-text1004-glyph3-2" />
        </g>
      </g>
    </g>
    <g
       id="lx-text1050"
       transform="matrix(0.352778,0,0,0.352778,37.667914,163.9966)">
      <defs
         id="defs1473">
        <g
           id="g1471">
          <symbol
             id="lx-text1050-glyph0-0"
             overflow="visible"
             style="overflow:visible">
            <path
               id="path1456"
               d="M 0.5,-6.015625 2.1875,-3.484375 0.5,-0.953125 Z M 0.796875,-0.5 2.5,-3.03125 4.1875,-0.5 Z m 2,-2.984375 1.6875,-2.53125 v 5.0625 z M 2.5,-3.921875 0.796875,-6.453125 H 4.1875 Z M 0,0 H 4.984375 V -6.953125 H 0 Z m 0,0"
               style="stroke:none"
               inkscape:connector-curvature="0" />
          </symbol>
          <symbol
             id="lx-text1050-glyph0-1"
             overflow="visible"
             style="overflow:visible">
            <path
               id="path1459"
               d="m 2.984375,-5.546875 h 0.03125 l 1.96875,5.203125 H 0.96875 Z M 3.515625,-6.5625 h -0.625 L 0.34375,-0.203125 C 0.3125,-0.09375 0.296875,-0.09375 0.296875,-0.0625 0.296875,-0.015625 0.375,0 0.515625,0 h 5.25 c 0.171875,0 0.21875,-0.015625 0.21875,-0.0625 0,-0.015625 -0.015625,-0.046875 -0.046875,-0.140625 z m 0,0"
               style="stroke:none"
               inkscape:connector-curvature="0" />
          </symbol>
          <symbol
             id="lx-text1050-glyph1-0"
             overflow="visible"
             style="overflow:visible">
            <path
               id="path1462"
               d="M 0.5,-6.015625 2.1875,-3.484375 0.5,-0.953125 Z M 0.796875,-0.5 2.5,-3.03125 4.1875,-0.5 Z m 2,-2.984375 1.6875,-2.53125 v 5.0625 z M 2.5,-3.921875 0.796875,-6.453125 H 4.1875 Z M 0,0 H 4.984375 V -6.953125 H 0 Z m 0,0"
               style="stroke:none"
               inkscape:connector-curvature="0" />
          </symbol>
          <symbol
             id="lx-text1050-glyph1-1"
             overflow="visible"
             style="overflow:visible">
            <path
               id="path1465"
               d="m 0,-5.734375 c 0,0.25 0.234375,0.515625 0.484375,0.515625 C 0.75,-5.21875 1,-5.5 1,-5.703125 1,-5.9375 0.78125,-6.21875 0.515625,-6.21875 0.28125,-6.21875 0,-5.984375 0,-5.734375 Z m 0,0"
               style="stroke:none"
               inkscape:connector-curvature="0" />
          </symbol>
          <symbol
             id="lx-text1050-glyph1-2"
             overflow="visible"
             style="overflow:visible">
            <path
               id="path1468"
               d="M 6.015625,-5.671875 5.609375,-3.625 H 2.5 l 0.390625,-2.046875 c 0.0625,-0.28125 0.203125,-0.421875 0.625,-0.453125 L 3.8125,-6.15625 C 3.859375,-6.203125 3.875,-6.359375 3.84375,-6.453125 3.390625,-6.4375 3.03125,-6.4375 2.640625,-6.4375 c -0.375,0 -0.828125,0 -1.265625,-0.015625 -0.03125,0.046875 -0.0625,0.25 -0.03125,0.296875 L 1.6875,-6.125 c 0.3125,0.03125 0.453125,0.109375 0.453125,0.328125 0,0.03125 0,0.078125 -0.015625,0.125 L 1.15625,-0.75 c -0.0625,0.265625 -0.203125,0.40625 -0.625,0.453125 l -0.296875,0.03125 C 0.1875,-0.234375 0.171875,-0.0625 0.203125,0.015625 0.65625,0.015625 1.015625,0 1.40625,0 c 0.375,0 0.828125,0.015625 1.265625,0.015625 0.03125,-0.03125 0.0625,-0.234375 0.03125,-0.28125 l -0.34375,-0.03125 c -0.3125,-0.03125 -0.453125,-0.125 -0.453125,-0.328125 0,-0.03125 0,-0.078125 0.015625,-0.125 L 2.40625,-3.203125 H 5.515625 L 5.046875,-0.75 c -0.0625,0.265625 -0.21875,0.40625 -0.625,0.453125 l -0.3125,0.03125 C 4.078125,-0.234375 4.0625,-0.0625 4.09375,0.015625 4.546875,0.015625 4.90625,0 5.296875,0 5.671875,0 6.125,0.015625 6.5625,0.015625 6.59375,-0.015625 6.625,-0.21875 6.59375,-0.265625 L 6.25,-0.296875 c -0.3125,-0.03125 -0.453125,-0.125 -0.453125,-0.328125 0,-0.03125 0,-0.078125 0.015625,-0.125 L 6.78125,-5.671875 C 6.84375,-5.953125 6.984375,-6.09375 7.390625,-6.125 l 0.3125,-0.03125 C 7.75,-6.203125 7.765625,-6.359375 7.71875,-6.453125 7.28125,-6.4375 6.921875,-6.4375 6.53125,-6.4375 c -0.375,0 -0.828125,0 -1.265625,-0.015625 -0.03125,0.046875 -0.0625,0.25 -0.03125,0.296875 l 0.34375,0.03125 c 0.3125,0.03125 0.4375,0.109375 0.4375,0.328125 0,0.03125 0,0.078125 0,0.125 z m 0,0"
               style="stroke:none"
               inkscape:connector-curvature="0" />
          </symbol>
        </g>
      </defs>
      <g
         id="lx-text1050-surface1">
        <g
           id="g1477"
           style="fill:#000000;fill-opacity:1">
          <use
             id="use1475"
             y="0"
             x="0"
             xlink:href="#lx-text1050-glyph0-1"
             width="100%"
             height="100%" />
        </g>
        <g
           id="g1481"
           style="fill:#000000;fill-opacity:1">
          <use
             id="use1479"
             y="-2.2709999"
             x="10.336"
             xlink:href="#lx-text1050-glyph1-1"
             width="100%"
             height="100%" />
        </g>
        <g
           id="g1485"
           style="fill:#000000;fill-opacity:1">
          <use
             id="use1483"
             y="0"
             x="6.336"
             xlink:href="#lx-text1050-glyph1-2"
             width="100%"
             height="100%" />
        </g>
      </g>
    </g>
  </g>
</svg>
